<svg height="511pt" viewBox="-47 0 511 511.99992" width="511pt" xmlns="http://www.w3.org/2000/svg"><g fill="#ffe046"><path d="m157.34375 7.527344s-2.675781 30.4375 51.847656 61.878906c0 0-61.878906 5.019531-71.914062-49.503906zm0 0"/><path d="m13.84375 473.386719v27.632812c0 1.910157 1.546875 3.457031 3.457031 3.457031h42.984375c1.90625 0 3.453125-1.546874 3.453125-3.457031v-27.9375c-16.476562 5.039063-33.109375 5.042969-49.894531.304688zm0 0"/><path d="m261.035156 7.527344s2.675782 30.4375-51.84375 61.878906c0 0 61.878906 5.019531 71.914063-49.503906zm0 0"/><path d="m261.035156 7.527344c-34.5625 5.886718-69.128906 5.886718-103.691406 0 0 0-1.039062 11.855468 11.429688 28.410156 26.941406 3.4375 53.882812 3.445312 80.828124.011719 12.476563-16.5625 11.433594-28.421875 11.433594-28.421875zm0 0"/></g><path d="m366.535156 73.625c-7.957031-28.738281-85.429687-53.722656-85.429687-53.722656-10.035157 54.523437-71.914063 49.503906-71.914063 49.503906s-61.878906 5.019531-71.914062-49.503906c0 0-77.472656 24.984375-85.429688 53.722656 0 0 43.863282 64.8125 29.195313 178.160156-14.667969 113.351563-5.585938 172.71875-5.585938 172.71875 89.15625 14.503906 178.3125 14.503906 267.46875 0 0 0 9.082031-59.367187-5.585937-172.71875-14.667969-113.347656 29.195312-178.160156 29.195312-178.160156zm0 0" fill="#2d56a1"/><path d="m366.535156 73.625c-7.957031-28.738281-85.429687-53.722656-85.429687-53.722656-.851563 4.636718-2.085938 8.828125-3.617188 12.640625 1.074219.484375 2.15625.980469 3.25 1.484375 28.945313 13.417968 43.121094 46.65625 32.75 76.828125-10.394531 30.234375-20.234375 78.132812-12.105469 140.929687 14.667969 113.351563 5.585938 177.714844 5.585938 177.714844s0 0 35.957031-4.996094c0 0 9.082031-59.367187-5.585937-172.71875-14.667969-113.347656 29.195312-178.160156 29.195312-178.160156zm0 0" fill="#24447f"/><path d="m81.042969 251.785156c14.667969-113.347656-29.195313-178.160156-29.195313-178.160156s-49.601562 299.351562-43.296875 398.128906c19.960938 6.804688 39.707031 6.957032 59.230469 0l7.671875-47.25c.003906 0-9.078125-59.367187 5.589844-172.71875zm0 0" fill="#aaa"/><path d="m366.535156 73.625s-43.863281 64.8125-29.195312 178.160156c14.664062 113.351563 5.585937 172.71875 5.585937 172.71875l7.671875 47.25c19.527344 6.957032 39.273438 6.804688 59.230469 0 6.304687-98.777344-43.292969-398.128906-43.292969-398.128906zm0 0" fill="#aaa"/><path d="m366.535156 73.625s-6.921875 10.234375-14.347656 29.667969c12.257812 78.066406 43.632812 288.679687 38.539062 368.460937-6.808593 2.324219-13.597656 3.851563-20.355468 4.605469 13.058594 1.476563 26.210937-.089844 39.457031-4.605469 6.304687-98.777344-43.292969-398.128906-43.292969-398.128906zm0 0" fill="#9b9b9b"/><path d="m354.644531 473.085938v27.933593c0 1.910157 1.546875 3.457031 3.453125 3.457031h42.984375c1.910157 0 3.457031-1.546874 3.457031-3.457031v-27.632812c-16.785156 4.738281-33.421874 4.734375-49.894531-.300781zm0 0" fill="#ffe046"/><path d="m75.457031 424.503906 1.027344 9.78125c1.335937 12.738282 11.363281 22.855469 24.09375 24.25 71.832031 7.863282 144.222656 7.722656 217.152344-.070312 12.765625-1.367188 22.835937-11.492188 24.175781-24.261719l1.019531-9.695313c-89.941406 14.375-179.109375 14.632813-267.46875-.003906zm0 0" fill="#ffe046"/><path d="m306.4375 429.558594-.488281 4.644531c-1.339844 12.769531-11.410157 22.894531-24.175781 24.257813-30.644532 3.277343-61.1875 5.179687-91.636719 5.726562 42.34375.757812 84.875-1.160156 127.59375-5.726562 12.765625-1.363282 22.835937-11.488282 24.175781-24.257813l1.019531-9.699219c-12.175781 1.949219-24.339843 3.625-36.488281 5.054688zm0 0" fill="#ffd508"/><path d="m168.773438 35.9375c-1.335938-1.769531-2.507813-3.484375-3.550782-5.140625 6.910156 10.972656 19.832032 24.691406 43.96875 38.609375 20.488282-11.816406 32.890625-23.484375 40.402344-33.457031-26.941406 3.433593-53.882812 3.425781-80.820312-.011719zm0 0" fill="#1a396b"/><path d="m373.929688 72.425781c-.003907-.027343-.011719-.054687-.019532-.078125-.039062-.234375-.085937-.46875-.152344-.695312-.023437-.085938-.054687-.167969-.078124-.253906-.011719-.042969-.027344-.089844-.042969-.136719-2.90625-9.933594-11.707031-19.570313-26.910157-29.449219-3.472656-2.257812-8.117187-1.269531-10.375 2.203125-2.257812 3.472656-1.269531 8.117187 2.203126 10.375 12.121093 7.875 17.429687 14.09375 19.648437 18.476563-19.996094 33.703124-35.957031 93.570312-30.066406 163.429687 1.449219 17.191406 15.75 112.191406 8.074219 181.660156 0 .007813-.003907.015625-.003907.027344-39.992187 6.128906-79.90625 9.410156-119.519531 9.828125v-350.820312c32.765625-1.171876 60.375-16.488282 69.746094-47.265626 7.117187 2.589844 18.355468 6.9375 29.945312 12.46875 3.738282 1.78125 8.214844.203126 10-3.539062 1.78125-3.738281.195313-8.210938-3.539062-9.996094-17.929688-8.554687-34.578125-14.253906-38.554688-15.578125l-19.316406-11.914062c-.007812-.003907-.019531-.007813-.03125-.015625-1.835938-1.121094-4.210938-1.496094-6.34375-.804688-32.789062 5.453125-66.019531 5.453125-98.808594 0-2.238281-.726562-4.660156-.234375-6.375.820313-.003906 0-.003906 0-.003906 0-29.808594 18.382812-15.050781 9.28125-19.316406 11.914062-4.070313 1.351563-21.414063 7.289063-39.808594 16.179688-29.222656 14.117187-45.433594 27.875-49.558594 42.039062-.003906.015625-.007812.03125-.015625.050781-.027343.097657-.0625.195313-.089843.296876-.0625.226562-.109376.453124-.148438.683593-.007812.03125-.019531.058594-.023438.089844-.175781 1.054687-17.589843 106.496094-30.34375 211.652344-.5 4.109375 2.429688 7.847656 6.542969 8.34375 4.105469.5 7.847657-2.429688 8.347657-6.539063 9.238281-76.1875 20.859374-152.078125 26.640624-188.585937 20.351563 46.886719 24.582032 102.46875 17.972657 153.554687-6.363281 49.164063-12.296875 124.976563-5.738281 173.605469l-6.757813 41.609375c-14.699219 4.40625-29.914063 4.453125-45.230469.132812-.039062-.011718-.078125-.015624-.113281-.027343-1.320313-31.433594 2.128906-83.554688 10.265625-155.101563.46875-4.113281-2.488281-7.828125-6.605469-8.296875-4.121093-.472656-7.832031 2.488281-8.296875 6.605469-8.695312 76.464844-12.082031 131.265625-10.0625 162.882812.191406 3.027344 2.191406 5.640626 5.0625 6.621094.070313.023438.140625.042969.210938.066406v22.101563c0 6.039063 4.914062 10.953125 10.957031 10.953125h42.984375c6.039062 0 10.953125-4.914062 10.953125-10.953125v-22.613281c2.085937-1.082032 3.5625-3.09375 3.945313-5.453125l2.917968-17.960938c5.546875 6 13.15625 10.0625 21.660156 10.996094 35.644532 3.902344 71.800782 5.851563 108.242188 5.851563 36.644531 0 73.582031-1.976563 110.523438-5.921876 8.535156-.914062 16.175781-4.972656 21.742187-10.984374l2.925781 18.019531c.386719 2.359375 1.863282 4.371093 3.949219 5.453125v22.613281c0 6.039063 4.914063 10.953125 10.953125 10.953125h42.984375c6.039063 0 10.953125-4.914062 10.953125-10.953125v-22.101563c.070312-.023437.140625-.042968.210938-.066406 2.875-.980468 4.871093-3.59375 5.066406-6.621094 6.289062-98.5-41.347656-387.574218-43.378906-399.832031zm28.679687 393.742188c-.035156.011719-.074219.015625-.113281.027343-15.316406 4.324219-30.53125 4.273438-45.230469-.132812l-6.757813-41.609375c6.570313-48.710937.613282-124.570313-5.734374-173.605469-6.613282-51.113281-2.351563-106.867187 17.96875-153.546875 4.535156 28.65625 12.664062 81.527344 20.371093 139.402344 14.503907 108.90625 21.214844 187.96875 19.496094 229.464844zm-256.828125-442.675781 6.003906-3.703126c4.652344 14.980469 15.96875 28.242188 27.898438 38.328126-17.664063-5.761719-29.214844-17.214844-33.902344-34.625zm84.695312 21.851562c-6.546874 5.738281-13.875 10.886719-21.289062 15.375-7.441406-4.507812-14.75-9.636719-21.285156-15.378906 14.953125.96875 29.179687.886718 42.574218.003906zm7.960938 12.945312c6.738281-5.679687 12.4375-11.582031 17.039062-17.667968.035157-.046875.078126-.085938.113282-.132813 6.007812-7.972656 9.253906-15.085937 11-20.699219l6.015625 3.710938c-4.765625 17.59375-16.761719 29.132812-34.167969 34.789062zm13.417969-41.742187c-1.507813 4.351563-3.773438 8.519531-6.425781 12.375-23.308594 2.734375-47.753907 2.875-72.402344.007813-3.292969-4.808594-5.269532-9.023438-6.449219-12.375 28.339844 3.859374 56.9375 3.855468 85.277344-.007813zm-119.929688 13.125c9.390625 31.050781 37.613281 46.152344 69.761719 47.320313v350.832031c-39.910156-.363281-79.804688-3.632813-119.460938-9.808594-.929687-9.042969-2.488281-29.410156-1.902343-60.523437.960937-47.144532 5.234375-78.515626 8.867187-110.617188 11.164063-98.128906-20.320312-159.308594-29.023437-174.035156 7.914062-15.851563 44.824219-33.539063 71.757812-43.167969zm-75.6875 467.332031h-34.898437v-14.160156c.019531.003906.035156.003906.050781.007812 11.347656 2.0625 22.921875 2.171876 34.847656-.148437zm260.691407-45.972656c-72.605469 7.761719-145.121094 7.785156-215.539063.074219-9.148437-1-16.488281-8.394531-17.453125-17.578125l-.003906-.050782c82.078125 12.570313 167.132812 12.546876 250.511718-.03125-.964843 9.210938-8.332031 16.605469-17.515624 17.585938zm80.105468 31.8125v14.160156h-34.894531v-14.300781c11.734375 2.285156 23.316406 2.246094 34.894531.140625zm0 0"/><path d="m315.238281 365.851562c1.75 0 3.507813-.609374 4.929688-1.851562 3.117187-2.722656 3.4375-7.460938.714843-10.582031-23.003906-26.351563-12.960937-76.085938-12.855468-76.582031.847656-4.050782-1.746094-8.023438-5.796875-8.878907-4.050781-.851562-8.027344 1.738281-8.882813 5.792969-.492187 2.332031-11.714844 57.515625 16.238282 89.535156 1.480468 1.695313 3.558593 2.566406 5.652343 2.566406zm0 0"/><path d="m98.210938 364c1.421874 1.242188 3.179687 1.851562 4.929687 1.851562 2.089844 0 4.167969-.871093 5.652344-2.566406 27.949219-32.019531 16.726562-87.199218 16.238281-89.535156-.855469-4.046875-4.824219-6.640625-8.878906-5.789062-4.050782.847656-6.644532 4.820312-5.800782 8.875.105469.496093 10.148438 50.230468-12.859374 76.582031-2.722657 3.121093-2.402344 7.859375.71875 10.582031zm0 0"/><path d="m289.769531 126.253906c4.140625 0 7.5-3.355468 7.5-7.5v-8.578125c0-7.582031-6.171875-13.753906-13.757812-13.753906h-27.667969c-7.582031 0-13.753906 6.171875-13.753906 13.753906v47.136719c0 7.582031 6.171875 13.753906 13.753906 13.753906h27.667969c7.585937 0 13.757812-6.171875 13.757812-13.753906v-8.578125c0-4.144531-3.359375-7.5-7.5-7.5-4.144531 0-7.5 3.355469-7.5 7.5v7.332031h-25.179687v-44.644531h25.179687v7.332031c0 4.144532 3.355469 7.5 7.5 7.5zm0 0"/></svg>