<?xml version="1.0"?>
<svg xmlns="http://www.w3.org/2000/svg" xmlns:xlink="http://www.w3.org/1999/xlink" xmlns:svgjs="http://svgjs.com/svgjs" version="1.1" width="512" height="512" x="0" y="0" viewBox="0 0 512.001 512.001" style="enable-background:new 0 0 512 512" xml:space="preserve" class=""><g>
<g xmlns="http://www.w3.org/2000/svg">
	<g>
		<g>
			<path d="M490.521,232.918c-2.229-13.333-22.333-131.208-44.313-164.167c-26.583-39.885-79.833-60.979-101.5-68.198     c-5.542-1.854-11.625,1.156-13.5,6.74C322.105,34.605,294.688,64.001,256,64.001s-66.104-29.396-75.208-56.708     c-1.875-5.604-7.896-8.604-13.5-6.74c-21.667,7.219-74.917,28.313-101.5,68.198C43.813,101.709,23.709,219.584,21.48,232.918     c-0.771,4.615,1.563,9.198,5.75,11.292c0.958,0.479,23.979,11.792,58.104,11.792c7.168,0,14.28-0.677,21.333-1.661v225.661     c0,3.563,1.792,6.896,4.75,8.875c1.417,0.948,35.938,23.125,144.583,23.125s143.167-22.177,144.583-23.125     c2.958-1.979,4.75-5.313,4.75-8.875V254.34c7.053,0.984,14.165,1.661,21.333,1.661c34.125,0,57.146-11.313,58.104-11.792     C488.959,242.116,491.292,237.532,490.521,232.918z M426.667,234.668c-7.181,0-14.303-0.773-21.333-1.922v-51.411     c0-34.469,7.313-45.344,7.917-46.188c3.792-4.188,3.667-10.656-0.375-14.688c-4.167-4.167-10.917-4.167-15.083,0     C395.48,122.761,384,136.522,384,181.334v292.083c-12.188,5.219-48.896,17.25-128,17.25c-79.229,0-115.917-12.073-128-17.24     V181.334c0-44.813-11.479-58.573-13.792-60.875c-4.188-4.156-11.146-4.385-15.292-0.229c-4.167,4.167-4.375,10.688-0.208,14.854     c0.083,0.104,7.958,10.458,7.958,46.25v51.411c-7.03,1.148-14.152,1.922-21.333,1.922c-18.458,0-33.146-3.885-41.354-6.708     c7.063-40,24.292-124.479,39.563-147.375c19.917-29.885,59.917-48.333,81.042-56.406c14.375,31.094,47,61.156,91.417,61.156     s77.042-30.062,91.417-61.156c21.125,8.073,61.125,26.521,81.042,56.406c15.271,22.906,32.521,107.427,39.563,147.406     C459.896,230.803,445.313,234.668,426.667,234.668z" fill="#f5f5f5" data-original="#000000" style="" class=""/>
			<path d="M330.667,341.334c-5.896,0-10.667,4.771-10.667,10.667v10.667h-10.667c-5.896,0-10.667,4.771-10.667,10.667     c0,5.896,4.771,10.667,10.667,10.667h21.333c5.896,0,10.667-4.771,10.667-10.667v-21.333     C341.334,346.105,336.563,341.334,330.667,341.334z" fill="#f5f5f5" data-original="#000000" style="" class=""/>
			<path d="M273.771,362.668h-35.562c-5.896,0-10.667,4.771-10.667,10.667c0,5.896,4.771,10.667,10.667,10.667h35.562     c5.896,0,10.667-4.771,10.667-10.667C284.438,367.439,279.667,362.668,273.771,362.668z" fill="#f5f5f5" data-original="#000000" style="" class=""/>
			<path d="M202.667,362.668h-10.667v-10.667c0-5.896-4.771-10.667-10.667-10.667c-5.896,0-10.667,4.771-10.667,10.667v21.333     c0,5.896,4.771,10.667,10.667,10.667h21.333c5.896,0,10.667-4.771,10.667-10.667     C213.334,367.439,208.563,362.668,202.667,362.668z" fill="#f5f5f5" data-original="#000000" style="" class=""/>
			<path d="M181.334,324.272c5.896,0,10.667-4.771,10.667-10.667v-38.396c0-5.896-4.771-10.667-10.667-10.667     c-5.896,0-10.667,4.771-10.667,10.667v38.396C170.667,319.501,175.438,324.272,181.334,324.272z" fill="#f5f5f5" data-original="#000000" style="" class=""/>
			<path d="M181.334,247.47c5.896,0,10.667-4.771,10.667-10.667v-38.396c0-5.896-4.771-10.667-10.667-10.667     c-5.896,0-10.667,4.771-10.667,10.667v38.396C170.667,242.699,175.438,247.47,181.334,247.47z" fill="#f5f5f5" data-original="#000000" style="" class=""/>
			<path d="M202.667,128.001h-21.333c-5.896,0-10.667,4.771-10.667,10.667v21.333c0,5.896,4.771,10.667,10.667,10.667     c5.896,0,10.667-4.771,10.667-10.667v-10.667h10.667c5.896,0,10.667-4.771,10.667-10.667S208.563,128.001,202.667,128.001z" fill="#f5f5f5" data-original="#000000" style="" class=""/>
			<path d="M273.792,128.001H238.23c-5.896,0-10.667,4.771-10.667,10.667s4.771,10.667,10.667,10.667h35.562     c5.896,0,10.667-4.771,10.667-10.667S279.688,128.001,273.792,128.001z" fill="#f5f5f5" data-original="#000000" style="" class=""/>
			<path d="M330.667,128.001h-21.333c-5.896,0-10.667,4.771-10.667,10.667s4.771,10.667,10.667,10.667H320v10.667     c0,5.896,4.771,10.667,10.667,10.667c5.896,0,10.667-4.771,10.667-10.667v-21.333     C341.334,132.772,336.563,128.001,330.667,128.001z" fill="#f5f5f5" data-original="#000000" style="" class=""/>
			<path d="M330.667,187.73c-5.896,0-10.667,4.771-10.667,10.667v38.396c0,5.896,4.771,10.667,10.667,10.667     c5.896,0,10.667-4.771,10.667-10.667v-38.396C341.334,192.501,336.563,187.73,330.667,187.73z" fill="#f5f5f5" data-original="#000000" style="" class=""/>
			<path d="M330.667,264.532c-5.896,0-10.667,4.771-10.667,10.667v38.396c0,5.896,4.771,10.667,10.667,10.667     c5.896,0,10.667-4.771,10.667-10.667v-38.396C341.334,269.303,336.563,264.532,330.667,264.532z" fill="#f5f5f5" data-original="#000000" style="" class=""/>
		</g>
	</g>
</g>
<g xmlns="http://www.w3.org/2000/svg">
</g>
<g xmlns="http://www.w3.org/2000/svg">
</g>
<g xmlns="http://www.w3.org/2000/svg">
</g>
<g xmlns="http://www.w3.org/2000/svg">
</g>
<g xmlns="http://www.w3.org/2000/svg">
</g>
<g xmlns="http://www.w3.org/2000/svg">
</g>
<g xmlns="http://www.w3.org/2000/svg">
</g>
<g xmlns="http://www.w3.org/2000/svg">
</g>
<g xmlns="http://www.w3.org/2000/svg">
</g>
<g xmlns="http://www.w3.org/2000/svg">
</g>
<g xmlns="http://www.w3.org/2000/svg">
</g>
<g xmlns="http://www.w3.org/2000/svg">
</g>
<g xmlns="http://www.w3.org/2000/svg">
</g>
<g xmlns="http://www.w3.org/2000/svg">
</g>
<g xmlns="http://www.w3.org/2000/svg">
</g>
</g></svg>
