<?xml version="1.0"?>
<svg xmlns="http://www.w3.org/2000/svg" xmlns:xlink="http://www.w3.org/1999/xlink" xmlns:svgjs="http://svgjs.com/svgjs" version="1.1" width="512" height="512" x="0" y="0" viewBox="0 0 300 300" style="enable-background:new 0 0 512 512" xml:space="preserve" class=""><g><g xmlns="http://www.w3.org/2000/svg"><path d="m263.238 112.581-43.069-44.48c-.388-1.238-1.354-2.242-2.642-2.635-11.789-3.58-23.859-6.234-35.895-7.895-.219-.074-.449-.129-.684-.164-22.164-3.281-40.93-3.27-57.375.035-.023.006-.047.01-.066.016-12.234 1.652-24.453 4.348-36.324 8.014-1.281.396-2.24 1.398-2.627 2.63l-43.068 44.479c-1.531 1.582-1.496 4.104.078 5.643l30.664 30c.77.752 1.777 1.141 2.797 1.141.73 0 1.465-.199 2.121-.607l7.215-4.507v121.114c0 2.209 1.789 4 4 4h128c2.211 0 4-1.791 4-4v-121.115l7.215 4.507c.656.408 1.391.607 2.121.607 1.02 0 2.027-.389 2.797-1.141l30.664-30c1.574-1.538 1.61-4.06.078-5.642zm-87.511-47.796c-2.407 10.879-12.037 18.962-23.364 18.962-11.388 0-21.048-8.157-23.397-19.118 13.592-2.236 28.974-2.186 46.761.156zm-100.153 75.521-25.57-25.018 34.359-35.482v55.009zm136.789 121.058h-120v-189.097c9.421-2.771 19.051-4.87 28.709-6.338 2.986 14.776 15.966 25.818 31.291 25.818 15.296 0 28.274-11.018 31.281-25.761 9.627 1.468 19.258 3.553 28.719 6.294zm16.789-121.058-8.789-5.491v-55.009l34.359 35.482z" fill="#ffffff" data-original="#000000" style="" class=""/><path d="m58.262 62.921c.781.781 1.805 1.172 2.828 1.172s2.047-.391 2.828-1.172c1.562-1.561 1.562-4.094 0-5.656l-5.656-5.658c-1.562-1.562-4.094-1.562-5.656 0-1.562 1.561-1.562 4.094 0 5.656z" fill="#ffffff" data-original="#000000" style="" class=""/><path d="m38.465 43.122c.781.781 1.805 1.172 2.828 1.172s2.047-.391 2.828-1.172c1.562-1.561 1.562-4.094 0-5.656l-5.656-5.658c-1.562-1.562-4.094-1.562-5.656 0-1.562 1.561-1.562 4.094 0 5.656z" fill="#ffffff" data-original="#000000" style="" class=""/><path d="m55.434 44.294c1.023 0 2.047-.391 2.828-1.172l5.656-5.658c1.562-1.562 1.562-4.096 0-5.656-1.562-1.562-4.094-1.562-5.656 0l-5.656 5.658c-1.562 1.562-1.562 4.096 0 5.656.781.781 1.804 1.172 2.828 1.172z" fill="#ffffff" data-original="#000000" style="" class=""/><path d="m44.121 51.606c-1.562-1.562-4.094-1.562-5.656 0l-5.656 5.658c-1.562 1.562-1.562 4.096 0 5.656.781.781 1.805 1.172 2.828 1.172s2.047-.391 2.828-1.172l5.656-5.658c1.563-1.562 1.563-4.095 0-5.656z" fill="#ffffff" data-original="#000000" style="" class=""/><path d="m248.363 49.463c2.264 0 4.099-1.835 4.099-4.099s-1.835-4.099-4.099-4.099-4.099 1.835-4.099 4.099 1.835 4.099 4.099 4.099z" fill="#ffffff" data-original="#000000" style="" class=""/><path d="m48.363 161.265c-2.264 0-4.099 1.835-4.099 4.099s1.835 4.099 4.099 4.099 4.099-1.835 4.099-4.099-1.835-4.099-4.099-4.099z" fill="#ffffff" data-original="#000000" style="" class=""/><path d="m256.363 169.364c-6.617 0-12 5.383-12 12s5.383 12 12 12 12-5.383 12-12-5.383-12-12-12zm0 16c-2.207 0-4-1.795-4-4s1.793-4 4-4 4 1.795 4 4-1.793 4-4 4z" fill="#ffffff" data-original="#000000" style="" class=""/><path d="m124.363 117.364h-16c-2.211 0-4 1.791-4 4v16c0 2.209 1.789 4 4 4h16c2.211 0 4-1.791 4-4v-16c0-2.209-1.789-4-4-4zm-4 16h-8v-8h8z" fill="#ffffff" data-original="#000000" style="" class=""/><path d="m180.363 117.364c-2.211 0-4 1.791-4 4v16c0 2.209 1.789 4 4 4h16c2.211 0 4-1.791 4-4v-16c0-2.209-1.789-4-4-4zm12 16h-8v-8h8z" fill="#ffffff" data-original="#000000" style="" class=""/><path d="m124.363 185.364h-16c-2.211 0-4 1.791-4 4v16c0 2.209 1.789 4 4 4h16c2.211 0 4-1.791 4-4v-16c0-2.209-1.789-4-4-4zm-4 16h-8v-8h8z" fill="#ffffff" data-original="#000000" style="" class=""/><path d="m196.363 185.364h-16c-2.211 0-4 1.791-4 4v16c0 2.209 1.789 4 4 4h16c2.211 0 4-1.791 4-4v-16c0-2.209-1.789-4-4-4zm-4 16h-8v-8h8z" fill="#ffffff" data-original="#000000" style="" class=""/><path d="m144.363 125.364h-8c-2.211 0-4 1.791-4 4s1.789 4 4 4h8c2.211 0 4-1.791 4-4s-1.789-4-4-4z" fill="#ffffff" data-original="#000000" style="" class=""/><path d="m168.363 125.364h-8c-2.211 0-4 1.791-4 4s1.789 4 4 4h8c2.211 0 4-1.791 4-4s-1.789-4-4-4z" fill="#ffffff" data-original="#000000" style="" class=""/><path d="m144.363 193.364h-8c-2.211 0-4 1.791-4 4s1.789 4 4 4h8c2.211 0 4-1.791 4-4s-1.789-4-4-4z" fill="#ffffff" data-original="#000000" style="" class=""/><path d="m168.363 193.364h-8c-2.211 0-4 1.791-4 4s1.789 4 4 4h8c2.211 0 4-1.791 4-4s-1.789-4-4-4z" fill="#ffffff" data-original="#000000" style="" class=""/><path d="m188.363 161.364c2.211 0 4-1.791 4-4v-8c0-2.209-1.789-4-4-4s-4 1.791-4 4v8c0 2.209 1.789 4 4 4z" fill="#ffffff" data-original="#000000" style="" class=""/><path d="m184.363 177.364c0 2.209 1.789 4 4 4s4-1.791 4-4v-8c0-2.209-1.789-4-4-4s-4 1.791-4 4z" fill="#ffffff" data-original="#000000" style="" class=""/><path d="m116.363 161.364c2.211 0 4-1.791 4-4v-8c0-2.209-1.789-4-4-4s-4 1.791-4 4v8c0 2.209 1.789 4 4 4z" fill="#ffffff" data-original="#000000" style="" class=""/><path d="m112.363 177.364c0 2.209 1.789 4 4 4s4-1.791 4-4v-8c0-2.209-1.789-4-4-4s-4 1.791-4 4z" fill="#ffffff" data-original="#000000" style="" class=""/></g></g></svg>
