<svg id="Capa_1" enable-background="new 0 0 511.951 511.951" height="512" viewBox="0 0 511.951 511.951" width="512" xmlns="http://www.w3.org/2000/svg"><g><g fill="#1e3f6b"><path d="m292.124 478.837 5.154 29.554c10.541-1.838 21.046-4.414 31.224-7.655l-9.104-28.586c-8.888 2.831-18.065 5.081-27.274 6.687z"/><path d="m353.524 457.816 14.037 26.514c9.428-4.991 18.613-10.676 27.302-16.898l-17.467-24.391c-7.597 5.44-15.629 10.412-23.872 14.775z"/><path d="m405.691 418.696 21.51 20.913c7.459-7.672 14.466-15.919 20.826-24.512l-24.113-17.848c-5.565 7.519-11.695 14.734-18.223 21.447z"/><path d="m443.266 365.564 26.893 13.296c4.704-9.515 8.804-19.434 12.187-29.481l-28.433-9.57c-2.955 8.776-6.537 17.442-10.647 25.755z"/><path d="m464.755 275.712c-.111 9.303-.842 18.651-2.171 27.787l29.688 4.319c1.52-10.442 2.354-21.123 2.481-31.747z"/><path d="m461.941 238.698 29.594-4.915c-1.737-10.464-4.198-20.897-7.314-31.01l-28.67 8.833c2.721 8.833 4.872 17.948 6.39 27.092z"/><path d="m467.959 163.131c-4.928-9.476-10.556-18.715-16.727-27.463l-24.514 17.294c5.396 7.649 10.316 15.728 14.623 24.01z"/><path d="m399.302 82.155-18.021 23.983c7.46 5.606 14.615 11.773 21.266 18.329l21.061-21.365c-7.602-7.492-15.78-14.539-24.306-20.947z"/><path d="m363.305 59.802c-9.564-4.819-19.54-9.025-29.648-12.5l-9.754 28.37c8.83 3.036 17.545 6.71 25.902 10.921z"/></g><path d="m47.198 273.166c0-102.075 73.634-187.264 170.572-205.268l-9.649 9.649 21.213 21.213 49.379-49.379-49.379-49.381-21.213 21.213 15.363 15.364c-51.459 6.96-99.001 30.395-136.348 67.741-45.101 45.101-69.938 105.065-69.938 168.847s24.838 123.746 69.938 168.847c45.101 45.101 105.065 69.939 168.847 69.939v-30c-115.124 0-208.785-93.66-208.785-208.785z" fill="#1e608b"/><path d="m255.985 137.666c-74.72 0-135.5 60.79-135.5 135.5s60.78 135.5 135.5 135.5c74.71 0 135.5-60.79 135.5-135.5s-60.79-135.5-135.5-135.5z" fill="#ef4a50"/><path d="m391.485 273.166c0 74.71-60.79 135.5-135.5 135.5v-271c74.71 0 135.5 60.79 135.5 135.5z" fill="#d53136"/></g></svg>