<?xml version="1.0"?>
<svg xmlns="http://www.w3.org/2000/svg" xmlns:xlink="http://www.w3.org/1999/xlink" xmlns:svgjs="http://svgjs.com/svgjs" version="1.1" width="512" height="512" x="0" y="0" viewBox="0 0 480.015 480.015" style="enable-background:new 0 0 512 512" xml:space="preserve"><g>
<g xmlns="http://www.w3.org/2000/svg">
	<g>
		<path d="M479.944,471.023l-48-384c-0.5-4.003-3.902-7.007-7.936-7.008h-82.904C327.911,24.181,271.953-10.386,216.12,2.808    c-38.277,9.045-68.163,38.931-77.208,77.208H56.008c-4.034,0.001-7.436,3.005-7.936,7.008l-48,384    c-0.548,4.384,2.562,8.382,6.946,8.93c0.328,0.041,0.659,0.062,0.99,0.062h464c4.418-0.001,7.999-3.584,7.998-8.002    C480.006,471.682,479.985,471.351,479.944,471.023z M336.008,160.015c4.418,0,8-3.582,8-8v-13.776    c7.653,4.418,10.275,14.204,5.856,21.856c-4.418,7.653-14.204,10.275-21.856,5.856c-7.653-4.418-10.275-14.204-5.856-21.856    c1.404-2.432,3.424-4.452,5.856-5.856v13.776C328.008,156.433,331.59,160.015,336.008,160.015z M240.008,16.015    c39.319,0.067,73.835,26.181,84.592,64H155.416C166.173,42.196,200.689,16.082,240.008,16.015z M144.008,160.015    c4.418,0,8-3.582,8-8v-13.776c7.653,4.418,10.275,14.204,5.856,21.856c-4.418,7.653-14.204,10.275-21.856,5.856    c-7.653-4.418-10.275-14.204-5.856-21.856c1.404-2.432,3.424-4.452,5.856-5.856v13.776    C136.008,156.433,139.59,160.015,144.008,160.015z M17.072,464.015l46-368h73.344c-0.208,2.648-0.408,25.136-0.408,25.136    c-17.112,4.418-27.402,21.872-22.984,38.984c4.418,17.112,21.872,27.402,38.984,22.984c17.112-4.418,27.402-21.872,22.984-38.984    c-2.91-11.272-11.712-20.074-22.984-22.984c0,0,0.168-22.496,0.408-25.136h175.2c0.24,2.64,0.408,25.136,0.408,25.136    c-17.112,4.418-27.402,21.872-22.984,38.984c4.418,17.112,21.872,27.402,38.984,22.984c17.112-4.418,27.402-21.872,22.984-38.984    c-2.91-11.272-11.712-20.074-22.984-22.984c0,0-0.2-22.488-0.408-25.136h73.344l46,368H17.072z" fill="#ffffff" data-original="#000000" style=""/>
	</g>
</g>
<g xmlns="http://www.w3.org/2000/svg">
</g>
<g xmlns="http://www.w3.org/2000/svg">
</g>
<g xmlns="http://www.w3.org/2000/svg">
</g>
<g xmlns="http://www.w3.org/2000/svg">
</g>
<g xmlns="http://www.w3.org/2000/svg">
</g>
<g xmlns="http://www.w3.org/2000/svg">
</g>
<g xmlns="http://www.w3.org/2000/svg">
</g>
<g xmlns="http://www.w3.org/2000/svg">
</g>
<g xmlns="http://www.w3.org/2000/svg">
</g>
<g xmlns="http://www.w3.org/2000/svg">
</g>
<g xmlns="http://www.w3.org/2000/svg">
</g>
<g xmlns="http://www.w3.org/2000/svg">
</g>
<g xmlns="http://www.w3.org/2000/svg">
</g>
<g xmlns="http://www.w3.org/2000/svg">
</g>
<g xmlns="http://www.w3.org/2000/svg">
</g>
</g></svg>
