<?xml version="1.0"?>
<svg xmlns="http://www.w3.org/2000/svg" xmlns:xlink="http://www.w3.org/1999/xlink" xmlns:svgjs="http://svgjs.com/svgjs" version="1.1" width="512" height="512" x="0" y="0" viewBox="0 0 512 512" style="enable-background:new 0 0 512 512" xml:space="preserve" class=""><g>
<g xmlns="http://www.w3.org/2000/svg">
	<g>
		<path d="M474.422,287.549l-102.021-22.031c-22.542-4.868-44.113-12.517-64.318-22.649c-0.43-0.271-0.893-0.502-1.386-0.686    c-7.503-3.817-14.814-7.979-21.913-12.473c-0.345-0.287-0.716-0.551-1.12-0.779c-0.117-0.066-0.238-0.119-0.357-0.178    c-15.584-10.009-30.132-21.617-43.408-34.688c-0.168-0.201-0.347-0.395-0.54-0.581c-0.095-0.092-0.197-0.172-0.295-0.258    c-7.087-7.039-13.818-14.487-20.139-22.337c-0.052-0.066-0.104-0.133-0.158-0.197c-3.983-4.956-7.808-10.068-11.463-15.331    l-16.938-24.389c-6.368-9.167-16.828-14.64-27.98-14.64H121.18c-0.008,0-0.017,0-0.025,0H83.979c-9.652,0-9.668,15,0,15h32.564    c50.808,94.601,138.844,165.627,242.02,195.314H100.832c-13.845-35.46-39.125-65.958-71.434-86.079l-4.693-2.923    c3.729-9.4,5.681-19.519,5.681-29.629v-76.684h21.191c9.652,0,9.668-15,0-15H22.886c-4.143,0-7.5,3.358-7.5,7.5v84.184    c0,10.081-2.386,20.172-6.898,29.181c-0.008,0.017-0.016,0.034-0.024,0.051c-0.006,0.012-0.011,0.023-0.017,0.035    C2.921,248.346,0,260.728,0,273.098v61.05v36.316c0,13.898,11.297,25.205,25.183,25.205h389.57c9.652,0,9.668-15,0-15H25.183    c-5.614,0-10.183-4.578-10.183-10.205v-1.806h145.913c9.652,0,9.668-15,0-15H15v-12.011h80.63c0.023,0.003,0.047,0.003,0.07,0H497    v31.767c0,4-3.246,7.254-7.235,7.254h-41.461c-9.652,0-9.668,15,0,15h41.461c12.261,0,22.235-9.983,22.235-22.254v-39.267    C512,311.848,496.196,292.251,474.422,287.549z M15,326.648v-53.55c0-7.313,1.271-14.624,3.684-21.53l2.784,1.734    c27.905,17.378,50.081,43.216,63.143,73.346H15z M397.672,320.586c-110.925-21.108-208.447-90.887-264-189.253h28.711    c6.241,0,12.096,3.064,15.66,8.197l5.167,7.439l-15.582,6.127c-3.855,1.516-5.751,5.87-4.235,9.725    c1.477,3.756,5.957,5.716,9.724,4.235l18.886-7.427l2.979,4.289c2.334,3.361,4.743,6.655,7.205,9.898l-13.731,9.214    c-3.439,2.308-4.357,6.968-2.049,10.407c2.249,3.352,7.064,4.291,10.406,2.049l14.778-9.916c3.885,4.598,7.914,9.05,12.059,13.372    l-10.842,11.214c-2.88,2.978-2.8,7.726,0.179,10.605c2.913,2.816,7.779,2.744,10.604-0.179l10.714-11.082    c3.878,3.639,7.86,7.153,11.925,10.561l-8.623,10.367c-2.649,3.185-2.215,7.913,0.97,10.562c3.112,2.588,7.985,2.129,10.562-0.97    l8.84-10.628c3.929,2.955,7.928,5.811,12.002,8.557l-7.698,13.676c-2.031,3.609-0.752,8.183,2.857,10.214    c3.532,1.988,8.22,0.685,10.215-2.857l7.298-12.966c4.017,2.407,8.098,4.711,12.234,6.919l-5.557,16.336    c-1.334,3.921,0.764,8.182,4.686,9.516c3.82,1.299,8.217-0.868,9.516-4.685l4.899-14.402c4.938,2.308,9.944,4.487,15.023,6.514    l-4.07,18.015c-0.913,4.041,1.622,8.056,5.663,8.968c3.947,0.895,8.073-1.701,8.968-5.663l3.635-16.091    c4.73,1.603,9.516,3.077,14.348,4.436l-1.254,16.731c-0.31,4.13,2.788,7.73,6.919,8.04c4.032,0.3,7.736-2.868,8.04-6.918    l1.058-14.116c0.826,0.186,1.646,0.386,2.474,0.565l28.437,6.141V320.586z M412.671,326.648V289.56l58.584,12.651    c12.413,2.68,21.987,12.432,24.854,24.437H412.671z" fill="#ffffff" data-original="#000000" style="" class=""/>
	</g>
</g>
<g xmlns="http://www.w3.org/2000/svg">
	<g>
		<path d="M333.246,353.658H193.639c-9.652,0-9.668,15,0,15h139.607C342.898,368.658,342.914,353.658,333.246,353.658z" fill="#ffffff" data-original="#000000" style="" class=""/>
	</g>
</g>
<g xmlns="http://www.w3.org/2000/svg">
	<g>
		<path d="M139.14,201.548c-1.006-3.093-3.629-5.306-6.848-5.774l-17.941-2.61l-8.026-16.283h-0.001    c-3.054-6.195-12.166-6.192-15.221,0l-8.025,16.283l-17.942,2.611c-3.219,0.468-5.842,2.681-6.848,5.774    c-1.008,3.093-0.186,6.426,2.142,8.697l12.988,12.677l-3.065,17.897c-1.17,6.802,6.212,12.16,12.313,8.948l16.046-8.446    l16.047,8.446c2.877,1.515,6.302,1.27,8.935-0.641c2.634-1.911,3.929-5.091,3.381-8.302l-3.067-17.902l12.988-12.677    C139.324,207.975,140.145,204.642,139.14,201.548z M111.085,214.575c-1.999,1.949-2.911,4.755-2.44,7.51l1.415,8.26l-7.391-3.891    c-2.454-1.294-5.453-1.297-7.908-0.002l-7.396,3.893l1.415-8.262c0.471-2.752-0.441-5.559-2.438-7.504l-6.002-5.858l8.29-1.208    c2.763-0.403,5.15-2.139,6.387-4.645l3.696-7.5l3.697,7.502c1.235,2.503,3.621,4.239,6.388,4.644l8.286,1.206L111.085,214.575z" fill="#ffffff" data-original="#000000" style="" class=""/>
	</g>
</g>
<g xmlns="http://www.w3.org/2000/svg">
</g>
<g xmlns="http://www.w3.org/2000/svg">
</g>
<g xmlns="http://www.w3.org/2000/svg">
</g>
<g xmlns="http://www.w3.org/2000/svg">
</g>
<g xmlns="http://www.w3.org/2000/svg">
</g>
<g xmlns="http://www.w3.org/2000/svg">
</g>
<g xmlns="http://www.w3.org/2000/svg">
</g>
<g xmlns="http://www.w3.org/2000/svg">
</g>
<g xmlns="http://www.w3.org/2000/svg">
</g>
<g xmlns="http://www.w3.org/2000/svg">
</g>
<g xmlns="http://www.w3.org/2000/svg">
</g>
<g xmlns="http://www.w3.org/2000/svg">
</g>
<g xmlns="http://www.w3.org/2000/svg">
</g>
<g xmlns="http://www.w3.org/2000/svg">
</g>
<g xmlns="http://www.w3.org/2000/svg">
</g>
</g></svg>
